HIERARCHY
ROOT Pelvis
{
	OFFSET 0.000000 0.000000 0.000000
	CHANNELS 6 Xposition Yposition Zposition Zrotation Yrotation Xrotation 
	JOINT Left_hip
	{
		OFFSET 0.068973 -0.091024 -0.007589
		CHANNELS 3 Zrotation Yrotation Xrotation
		JOINT Left_knee
		{
			OFFSET 0.036482 -0.391037 -0.003979
			CHANNELS 3 Zrotation Yrotation Xrotation
			JOINT Left_ankle
			{
				OFFSET -0.012239 -0.415469 -0.043440
				CHANNELS 3 Zrotation Yrotation Xrotation
				JOINT Left_foot
				{
					OFFSET 0.023806 -0.058558 0.118702
					CHANNELS 3 Zrotation Yrotation Xrotation
					End Site
					{
						OFFSET 0.000000 0.000000 0.000000
					}
				}
			}
		}
	}
	JOINT Right_hip
	{
		OFFSET -0.066552 -0.090468 -0.003847
		CHANNELS 3 Zrotation Yrotation Xrotation
		JOINT Right_knee
		{
			OFFSET -0.042435 -0.398340 -0.006400
			CHANNELS 3 Zrotation Yrotation Xrotation
			JOINT Right_ankle
			{
				OFFSET 0.014931 -0.415421 -0.041327
				CHANNELS 3 Zrotation Yrotation Xrotation
				JOINT Right_foot
				{
					OFFSET -0.021472 -0.049410 0.121889
					CHANNELS 3 Zrotation Yrotation Xrotation
					End Site
					{
						OFFSET 0.000000 0.000000 0.000000
					}
				}
			}
		}
	}
	JOINT Spine1
	{
		OFFSET -0.002904 0.105700 -0.022855
		CHANNELS 3 Zrotation Yrotation Xrotation
		JOINT Spine2
		{
			OFFSET 0.004179 0.132554 -0.002501
			CHANNELS 3 Zrotation Yrotation Xrotation
			JOINT Spine3
			{
				OFFSET 0.001987 0.049603 0.025988
				CHANNELS 3 Zrotation Yrotation Xrotation
				JOINT Neck
				{
					OFFSET -0.003935 0.211336 -0.045638
					CHANNELS 3 Zrotation Yrotation Xrotation
					JOINT Head
					{
						OFFSET 0.003906 0.065991 0.051018
						CHANNELS 3 Zrotation Yrotation Xrotation
						End Site
						{
							OFFSET 0.000000 0.000000 0.000000
						}
					}
				}
				JOINT Left_collar
				{
					OFFSET 0.072882 0.117751 -0.036270
					CHANNELS 3 Zrotation Yrotation Xrotation
					JOINT Left_shoulder
					{
						OFFSET 0.082118 0.032630 -0.005771
						CHANNELS 3 Zrotation Yrotation Xrotation
						JOINT Left_elbow
						{
							OFFSET 0.263305 -0.015144 -0.028095
							CHANNELS 3 Zrotation Yrotation Xrotation
							JOINT Left_wrist
							{
								OFFSET 0.250741 0.010115 -0.000759
								CHANNELS 3 Zrotation Yrotation Xrotation
								JOINT Left_palm
								{
									OFFSET 0.080683 -0.009989 -0.013613
									CHANNELS 3 Zrotation Yrotation Xrotation
									End Site
									{
										OFFSET 0.000000 0.000000 0.000000
									}
								}
							}
						}
					}
				}
				JOINT Right_collar
				{
					OFFSET -0.074811 0.116132 -0.040385
					CHANNELS 3 Zrotation Yrotation Xrotation
					JOINT Right_shoulder
					{
						OFFSET -0.085089 0.032943 -0.007484
						CHANNELS 3 Zrotation Yrotation Xrotation
						JOINT Right_elbow
						{
							OFFSET -0.254763 -0.014219 -0.020321
							CHANNELS 3 Zrotation Yrotation Xrotation
							JOINT Right_wrist
							{
								OFFSET -0.256597 0.009233 -0.005063
								CHANNELS 3 Zrotation Yrotation Xrotation
								JOINT Right_palm
								{
									OFFSET -0.080528 -0.007219 -0.010379
									CHANNELS 3 Zrotation Yrotation Xrotation
									End Site
									{
										OFFSET 0.000000 0.000000 0.000000
									}
								}
							}
						}
					}
				}
			}
		}
	}
}
MOTION
Frames: 14
Frame Time: 0.100000
0.478292 -0.099925 0.750782 17.784185 37.425509 -177.697667 8.863058 14.711135 22.883373 -0.910765 9.154532 12.032031 1.367257 11.347460 -10.117312 -1.299921 14.789700 -10.379039 -13.261175 -12.797706 3.372496 -0.095150 -15.098994 17.047915 12.519979 -15.507162 5.531355 -14.694778 4.291913 -7.337082 4.046013 -2.898082 12.218723 3.584559 -10.217613 10.305548 2.220594 -5.648450 1.151000 -2.126544 -25.600011 4.140200 9.416862 -22.115356 -5.049137 -5.895731 -27.439791 0.430180 -38.556051 -39.034912 2.206352 154.007959 -77.267597 -120.594823 39.307307 -17.892593 6.335724 -11.583786 -5.434771 -1.564702 4.839014 15.374416 -4.560922 44.153880 1.264051 4.519196 -152.560378 53.655252 -118.831517 -40.420181 24.243775 18.687854 15.437954 13.502799 -7.701352 
0.435823 -0.107144 0.769786 21.711402 47.061200 -173.837971 10.974499 15.716257 23.822060 0.469299 12.985109 12.833692 -0.457758 12.479878 -7.528163 -0.108021 14.055313 -10.458078 -12.569217 -16.515318 2.580422 0.393535 -23.795815 14.353451 10.936776 -17.986004 7.569871 -13.857631 3.901181 -6.338590 3.980909 -1.867024 12.606289 2.916957 -8.710231 10.107137 2.623730 -4.455884 0.706872 -2.885534 -24.113055 4.181865 9.576300 -20.382109 -5.173324 -5.436325 -26.984954 0.210116 -38.472478 -37.638035 2.294672 158.068519 -77.446116 -125.339959 39.720859 -17.883296 5.788742 -10.891001 -5.999929 -2.024074 4.938230 16.660979 -3.775628 45.398156 2.774532 4.514735 -153.211320 54.209924 -119.930931 -40.607244 24.620029 18.567481 14.980544 13.476390 -7.587363 
0.380873 -0.113150 0.793830 24.669194 54.055267 -169.569334 13.000776 16.846463 25.327650 1.561187 16.102972 11.835348 -2.538318 13.405413 -3.568663 0.236808 13.005386 -11.557307 -8.225619 -16.961984 -0.903916 -0.997535 -28.568906 18.608484 6.094697 -18.730228 2.094915 -8.836288 2.853235 -3.203886 3.487544 -2.790270 11.900148 1.918714 -8.303423 9.202454 2.326080 -4.488998 0.223614 -3.258109 -21.350576 4.513152 8.709354 -17.895663 -4.544452 -4.815254 -28.415591 -0.846749 -38.576575 -39.013848 2.309661 151.037669 -78.087807 -118.765276 39.579430 -17.525966 4.496009 -8.473334 -5.213124 -1.311946 3.215409 17.924652 -4.493726 45.556005 5.805648 4.285438 -152.153816 54.697204 -118.112624 -40.324902 23.623395 16.410641 12.524269 12.150423 -5.706012 
0.308534 -0.117343 0.823080 26.568544 58.071226 -167.202556 16.677041 15.304716 23.238190 4.495344 16.276760 20.830294 -6.291172 14.925656 3.717366 1.350045 12.094626 -14.677891 -3.375471 -13.105491 1.255124 0.234622 -22.959203 17.970835 -0.178319 -17.150242 -4.913105 -2.106525 -0.259450 0.219781 2.480226 -3.762264 9.977059 1.342373 -10.075169 8.775920 1.854057 -5.654582 -0.084487 -4.031017 -17.734259 6.134778 7.629540 -14.469454 -3.498416 -1.934118 -31.539611 -3.296721 -34.884307 -43.345735 0.055373 134.757008 -76.327468 -102.538784 39.217406 -17.164155 2.731068 -6.603184 -3.564506 0.245016 -0.698869 18.718791 -7.172049 42.141732 10.051929 2.683024 -148.352739 53.828228 -112.862711 -40.495025 21.503543 12.561616 10.769239 10.298996 -3.805766 
0.239520 -0.120306 0.861968 39.624760 69.434505 -157.962244 19.660935 12.163115 14.994279 6.356057 10.731819 45.669965 -6.373990 15.735418 9.572692 2.118795 12.908187 -17.557732 0.299734 -11.534112 6.483631 1.642242 -14.922552 19.682039 -5.782565 -14.677594 -9.813970 3.506016 -3.044661 0.399129 0.281272 -1.778275 11.654450 0.814641 -10.741330 8.475923 1.842232 -5.057716 -0.099309 -3.401090 -11.177288 9.145345 6.756823 -9.353522 -0.815522 3.135887 -34.622722 -7.270312 -26.418229 -44.453326 -6.522003 116.699311 -72.960282 -84.678874 43.143392 -14.735812 4.006072 -7.449741 -2.951427 -0.163866 -4.602249 23.669682 -10.149130 40.161660 18.734616 0.489224 -140.238231 55.359545 -103.467596 -44.288296 19.344361 12.012095 12.053056 9.804477 -4.175050 
0.179010 -0.124242 0.891918 102.187501 78.992827 -98.695152 14.860914 9.108091 6.397270 0.961734 6.936257 56.526792 -3.385170 11.673757 3.174195 -1.852289 15.250805 -15.568033 3.144191 -8.902014 12.392185 1.102384 -5.008786 19.658626 -5.529503 -12.146845 -12.127410 4.338788 -1.219385 -1.625991 -1.645074 1.250202 12.842518 0.949570 -10.309195 8.300888 1.549738 -3.332978 0.505472 -0.326038 -2.411693 9.232194 4.097996 -5.024769 0.625102 7.860251 -34.270294 -11.135130 -18.491826 -41.344290 -12.236772 114.495817 -69.832431 -80.785375 45.559401 -14.800625 7.671685 -8.452870 -2.885815 -1.431226 -6.199186 27.830254 -13.075288 41.881556 28.520630 1.929465 -135.063047 56.960494 -97.303809 -46.731995 17.834158 11.947749 14.032331 10.118953 -4.467391 
0.116989 -0.130703 0.914715 154.987128 70.069295 -47.096921 9.475653 5.644406 -5.897050 0.250902 7.428726 50.997795 -0.061776 11.051258 -1.591805 -1.223183 16.797307 -11.232013 4.453235 -6.641573 17.299969 -0.647939 4.096291 18.597248 -3.188033 -9.535039 -12.693501 3.101540 -0.291319 -4.006154 -2.791340 4.219956 12.711953 1.647929 -10.169983 7.293068 1.598360 -1.919114 1.251406 2.027136 3.830339 8.630107 2.628689 -2.139729 0.286964 9.828249 -31.181791 -12.508262 -17.758695 -37.831145 -12.197751 118.471324 -67.922985 -83.037553 46.392166 -14.223593 9.533538 -9.737914 -3.060508 -3.171660 -6.151232 27.793325 -13.770609 46.579597 33.620495 6.088311 -134.972236 58.064530 -95.674016 -46.502085 16.787644 11.551100 15.198927 10.373429 -5.783494 
0.043377 -0.126192 0.935373 167.617222 58.676883 -35.461987 8.076153 4.087755 -12.299092 0.471911 7.020354 29.590931 -1.658477 11.472128 -0.290222 4.831769 18.541292 -8.099135 3.272895 -4.541035 20.734438 -0.796821 11.031928 22.102332 -2.835840 -7.764358 -15.576915 5.004847 -0.922981 -5.442309 -2.217753 5.029677 11.686013 2.164859 -9.720130 7.751973 1.833104 -1.321752 1.732715 4.393882 8.285602 8.621667 0.696636 -0.113223 -1.756337 8.298333 -26.543154 -11.583373 -18.693219 -33.841368 -10.353767 122.189272 -66.026950 -86.381709 44.838228 -13.353651 9.952562 -9.143824 -2.335889 -5.730576 -5.142444 26.167121 -13.054374 51.049068 36.072771 11.346786 -134.921295 60.433674 -96.855161 -45.266670 14.958994 8.641478 14.247851 9.245351 -7.055027 
-0.041536 -0.100110 0.962048 172.845103 48.992495 -31.852595 10.477618 4.325022 -13.164562 -1.829293 1.838589 7.801017 -7.531016 9.208926 2.457601 13.233576 19.312468 -5.581134 -0.248575 -3.063941 23.257742 0.627369 15.958999 30.595036 -3.635245 -7.039956 -22.075294 8.077161 -1.890523 -7.001778 -0.897202 5.076060 11.594961 3.331666 -9.144562 9.546356 2.422734 -0.526300 1.533589 5.495894 13.541372 7.935941 -2.716888 0.018616 -3.501814 7.114540 -22.571303 -10.803101 -17.242077 -28.925824 -10.341630 122.226031 -63.249797 -86.976311 44.339327 -12.433427 9.331272 -7.744411 -1.063822 -7.481925 -2.312297 26.333886 -11.739039 55.146530 38.576592 16.084681 -135.409036 62.929975 -97.654735 -44.677131 14.472728 8.101917 12.158186 7.659953 -7.463443 
-0.144175 -0.074885 0.993456 175.034467 42.971354 -27.751130 12.415826 4.338076 -19.709037 -2.399656 1.938946 6.541189 -9.365294 9.418380 0.150149 18.370304 19.900994 -3.541347 -4.716123 -1.686966 26.385291 0.340185 21.618198 32.151642 -1.536020 -7.346432 -26.273414 5.590745 -1.980743 -9.688705 -0.364006 7.015940 9.969365 4.742582 -8.572542 9.811659 3.055746 0.929118 1.590224 5.260455 15.356773 5.112175 -3.745293 -1.991307 -5.363015 9.275805 -20.988907 -11.866300 -13.502776 -27.220893 -12.678421 119.446109 -61.978166 -85.234194 44.812565 -11.576333 9.937780 -8.163464 -0.766628 -7.274134 -0.907229 27.168558 -10.790352 56.735873 39.843581 18.134329 -136.400254 63.170702 -98.323442 -45.358242 14.827244 9.916961 11.871613 7.576584 -9.130695 
-0.263339 -0.062635 1.020294 174.142688 40.397652 -25.015332 13.668252 3.625764 -28.597561 -3.522774 5.136574 21.634121 -8.850238 9.837734 8.886505 17.446447 20.636249 -8.396751 -9.455738 -1.375721 20.190748 5.149362 23.259901 47.187143 2.174797 -3.122399 -10.543114 2.403997 -2.148460 -17.324482 -0.269482 7.915922 9.934232 6.577106 -7.611471 8.244585 3.911531 1.775911 0.659908 3.419453 13.639943 1.287620 -2.590662 -1.537630 -7.275023 12.372376 -20.818980 -13.513120 -11.828796 -29.783744 -14.546660 116.844927 -61.871306 -84.005195 43.139832 -10.445571 9.077454 -11.069270 -2.047419 -6.992508 -1.359633 27.936092 -10.968070 56.319902 42.865877 18.252356 -132.933078 62.871860 -94.202082 -43.055707 15.826785 15.648680 13.698567 8.636429 -10.377026 
-0.351125 -0.046641 1.020299 173.698618 38.219202 -26.090449 11.519769 4.741564 -34.475879 -4.097766 6.403540 41.583725 -2.730412 9.812008 4.598875 11.868557 22.624311 -10.540629 -11.792243 -1.782968 -1.961682 7.813181 16.231482 79.864948 3.904429 -7.553386 -2.117200 1.151164 -1.455060 -23.890707 1.537723 5.415258 20.815079 6.728157 -4.250110 7.111654 4.553601 2.567608 0.450359 0.895748 11.841815 -2.965636 -3.566118 1.084743 -13.138410 14.762597 -23.922464 -14.959029 -7.612849 -28.239131 -19.966105 114.131079 -59.687786 -81.838881 45.646613 -9.939490 11.627105 -10.383074 -3.015088 -8.178128 -5.609869 33.762787 -12.849423 50.854820 47.340326 13.109067 -126.127111 60.188633 -89.581646 -45.402121 16.673695 20.175462 12.957495 9.147863 -10.778805 
-0.425837 -0.043336 1.021429 172.730960 40.039019 -27.129740 8.544208 5.802199 -35.891469 -5.998594 8.236900 52.136807 2.238510 8.303988 -2.365079 4.689564 23.288197 -12.169675 -16.100267 -3.215775 -14.953609 9.830938 10.583591 84.733884 1.849419 -2.181430 -8.945646 6.305242 -3.895335 -20.319509 6.152556 2.703608 26.865584 6.809925 -2.779977 7.005687 4.382666 3.459474 -0.599636 -3.040545 9.070203 0.226528 -6.562475 0.377509 -14.858733 14.616562 -27.960048 -16.171836 -6.755732 -29.756878 -21.352503 109.713647 -57.712108 -77.334605 45.943352 -11.446060 13.551830 -11.042461 -1.932179 -7.709723 -6.675304 38.530342 -11.598760 42.342352 49.650766 5.746633 -123.430538 58.326863 -90.284643 -46.928803 16.077265 17.042926 13.204676 9.535465 -10.578949 
-0.491012 -0.022356 1.046232 172.317173 45.393631 -30.438336 4.922857 4.815195 -35.273739 -7.789240 10.072237 63.771838 7.105678 7.912659 -10.338612 -1.349142 23.069208 -12.195008 -19.153816 -3.682612 -12.551428 11.445910 12.077640 82.823281 4.020382 1.211848 -9.362345 4.872721 -3.174731 -20.108574 8.762561 2.219972 29.002707 8.355506 -3.540303 6.371700 4.623990 3.723151 -0.500052 -5.180393 5.967206 1.072064 -8.613953 -2.310908 -11.808138 15.863081 -30.610846 -17.327546 -5.359517 -31.630577 -23.215207 106.197627 -58.571271 -72.940830 45.797705 -13.233250 15.463896 -12.360521 -1.493405 -5.683244 -5.765058 40.871108 -11.949702 36.496766 50.195073 1.109603 -118.573259 58.439625 -86.023558 -46.811849 17.597451 20.393850 14.018941 10.375570 -10.264601 
